<svg width="112" height="93" viewBox="0 0 112 93" fill="none" xmlns="http://www.w3.org/2000/svg">
<g filter="url(#filter0_d_1_670)">
<path d="M64.8677 18.902C63.9912 18.9027 63.1508 19.3066 62.5313 20.0248C61.9118 20.7431 61.5637 21.7169 61.5637 22.7323C61.5637 23.7477 61.9118 24.7215 62.5313 25.4397C63.1508 26.158 63.9912 26.5619 64.8677 26.5626C65.3021 26.563 65.7323 26.4642 66.1337 26.2719C66.5351 26.0795 66.8999 25.7974 67.2072 25.4417C67.5145 25.086 67.7582 24.6636 67.9246 24.1987C68.0909 23.7338 68.1765 23.2355 68.1765 22.7323C68.1765 22.2291 68.0909 21.7307 67.9246 21.2658C67.7582 20.8009 67.5145 20.3786 67.2072 20.0229C66.8999 19.6671 66.5351 19.3851 66.1337 19.1927C65.7323 19.0004 65.3021 18.9016 64.8677 18.902ZM26.0737 20.1828L11.4641 20.2074C11.4011 20.2074 11.3405 20.1982 11.2799 20.2074C10.5624 20.3177 10.0024 21.0439 10 21.9172L10.0436 66.5756C10.0436 67.2498 10.1891 68.6471 11.6968 68.6471L25.2228 68.5827C29.0892 68.5735 31.6804 68.4877 33.2221 68.2395H33.2609C34.8709 67.9378 36.4568 67.4569 37.9998 66.8024C40.9572 65.638 43.5751 63.9097 45.8294 61.6024C47.961 59.4775 49.7082 56.8007 50.9538 53.7517C51.7244 51.8382 52.2528 49.7837 52.5197 47.6631C52.729 47.6992 52.9392 47.7278 53.15 47.7489C55.8784 47.7489 58.4951 46.493 60.4244 44.2576C62.3537 42.0222 63.4375 38.9903 63.4375 35.8289C63.4375 32.6675 62.3537 29.6357 60.4244 27.4002C58.4951 25.1648 55.8784 23.909 53.15 23.909C50.5277 23.9356 48.0132 25.1216 46.1203 27.2245C44.4768 25.5034 42.6384 24.1038 40.6663 23.0724C36.943 21.0807 32.0949 20.1675 26.0737 20.1828ZM25.4386 29.3879C28.3838 29.3787 30.4781 29.492 31.6659 29.6973C33.0087 29.9511 34.3239 30.3994 35.5855 31.0334C36.9672 31.7014 38.1744 32.5134 39.2119 33.5277C42.0649 36.3315 43.4103 39.6531 43.4151 44.0442C43.4224 48.5425 42.1207 52.0449 39.3428 54.9836C38.4702 55.8884 37.5118 56.6522 36.4897 57.2572C35.4983 57.8395 34.2063 58.3451 32.5749 58.7771C31.0332 59.1693 28.6965 59.39 25.6519 59.3961L19.1725 59.4083L19.1434 29.4001L25.4386 29.3879Z" fill="#7C7C7C"/>
<path d="M96 20.1419V19.0884C96 15.7246 93.2981 13 89.9623 13C88.6389 12.9998 87.351 13.4318 86.2913 14.2313C85.2317 15.0307 84.4573 16.1548 84.084 17.4351L69.643 66.939C69.0734 68.8919 67.8921 70.6064 66.276 71.8262C64.6598 73.0459 62.6955 73.7053 60.6768 73.7059H60.5883M72.9824 34.4256H85.3765" stroke="#7C7C7C" stroke-width="11" stroke-linecap="round" stroke-linejoin="round"/>
</g>
<defs>
<filter id="filter0_d_1_670" x="0" y="0.5" width="111.5" height="91.7059" filterUnits="userSpaceOnUse" color-interpolation-filters="sRGB">
<feFlood flood-opacity="0" result="BackgroundImageFix"/>
<feColorMatrix in="SourceAlpha" type="matrix" values="0 0 0 0 0 0 0 0 0 0 0 0 0 0 0 0 0 0 127 0" result="hardAlpha"/>
<feOffset dy="3"/>
<feGaussianBlur stdDeviation="5"/>
<feComposite in2="hardAlpha" operator="out"/>
<feColorMatrix type="matrix" values="0 0 0 0 0 0 0 0 0 0 0 0 0 0 0 0 0 0 0.25 0"/>
<feBlend mode="normal" in2="BackgroundImageFix" result="effect1_dropShadow_1_670"/>
<feBlend mode="normal" in="SourceGraphic" in2="effect1_dropShadow_1_670" result="shape"/>
</filter>
</defs>
</svg>
